# xmcd
#
# Track frame offsets: 
#        150
#        5507
#        17511
#        30902
#        63495
#        76098
#        91117
#        109061
#        126847
#        149216
#        159611
#        169823
#        185558
#        190051
#
# Disc length: 2884 seconds
#
# Revision: 0
# Processed by: cddbd v1.5.2PL0 Copyright (c) Steve Scherf et al.
# Submitted via: ExactAudioCopy v1.0b3
#
DISCID=af0b420e
DTITLE=Solar Manoeuvre - Gold Rush in Dead Space
DYEAR=2012
DGENRE=Rock
TTITLE0=Momentum
TTITLE1=Battle of Eris
TTITLE2=Albert II
TTITLE3=Sunlit Hill
TTITLE4=Here Comes the Reaper Man
TTITLE5=Solstice
TTITLE6=Terrians
TTITLE7=Sally, Take a Ride With Me
TTITLE8=Sweet Violet
TTITLE9=Elite
TTITLE10=Face in Blood
TTITLE11=Phantom Lights
TTITLE12=Silentium
TTITLE13=Out of Oxygen
EXTD=
EXTT0=
EXTT1=
EXTT2=
EXTT3=
EXTT4=
EXTT5=
EXTT6=
EXTT7=
EXTT8=
EXTT9=
EXTT10=
EXTT11=
EXTT12=
EXTT13=
PLAYORDER=
